<?xml version="1.0" encoding="UTF-8"?>
<svg width="180px" height="180px" viewBox="0 0 180 180" version="1.1" xmlns="http://www.w3.org/2000/svg" xmlns:xlink="http://www.w3.org/1999/xlink">
    <title>@1x180x180 (iPhone)</title>
    <defs>
        <linearGradient x1="10.3751621%" y1="-3.61723117%" x2="97.1959009%" y2="89.8619285%" id="linearGradient-1">
            <stop stop-color="#348ECE" offset="0%"></stop>
            <stop stop-color="#4197A4" offset="32.6868444%"></stop>
            <stop stop-color="#5FAB89" offset="33.4152434%"></stop>
            <stop stop-color="#69B457" offset="100%"></stop>
        </linearGradient>
        <linearGradient x1="13.0409726%" y1="-6.9388939e-16%" x2="95.7605288%" y2="87.1246653%" id="linearGradient-2">
            <stop stop-color="#308BDE" offset="0%"></stop>
            <stop stop-color="#4197A4" offset="34.0557256%"></stop>
            <stop stop-color="#5FAB89" offset="34.2466128%"></stop>
            <stop stop-color="#71BB33" offset="100%"></stop>
        </linearGradient>
        <rect id="path-3" x="80" y="123" width="71" height="49" rx="5"></rect>
        <filter x="-33.1%" y="-43.9%" width="166.2%" height="195.9%" filterUnits="objectBoundingBox" id="filter-4">
            <feOffset dx="0" dy="2" in="SourceAlpha" result="shadowOffsetOuter1"></feOffset>
            <feGaussianBlur stdDeviation="7.5" in="shadowOffsetOuter1" result="shadowBlurOuter1"></feGaussianBlur>
            <feColorMatrix values="0 0 0 0 0   0 0 0 0 0   0 0 0 0 0  0 0 0 0.15 0" type="matrix" in="shadowBlurOuter1"></feColorMatrix>
        </filter>
    </defs>
    <g id="180x180-(iPhone)" stroke="none" stroke-width="1" fill="none" fill-rule="evenodd">
        <rect fill="#FFFFFF" x="0" y="0" width="180" height="180"></rect>
        <g id="Group-2" transform="translate(18.000000, 4.000000)">
            <polygon id="Path" fill="#DCE9F9" points="101 1 140 43 101 43"></polygon>
            <g id="Group" transform="translate(11.000000, 10.000000)" fill="url(#linearGradient-1)">
                <polygon id="Path-2" points="0 0 0 144.701251 122 144.701251 122 40.2033182 87.1080513 35.1273041 87.1080513 0"></polygon>
            </g>
            <path d="M95.923681,6 L95.923681,37.0463614 C95.923681,40.0839275 97.1548979,42.8339275 99.1455064,44.824536 C101.136115,46.8151445 103.886115,48.0463614 106.923681,48.0463614 L135,48.0463614 L135,154 C135,155.104569 134.552285,156.104569 133.828427,156.828427 C133.104569,157.552285 132.104569,158 131,158 L10,158 C8.8954305,158 7.8954305,157.552285 7.17157288,156.828427 C6.44771525,156.104569 6,155.104569 6,154 L6,10 C6,8.8954305 6.44771525,7.8954305 7.17157288,7.17157288 C7.8954305,6.44771525 8.8954305,6 10,6 L95.923681,6 Z" id="Rectangle-Copy" stroke="url(#linearGradient-2)" stroke-width="12" fill="url(#linearGradient-2)"></path>
            <g id="Rectangle">
                <use fill="black" fill-opacity="1" filter="url(#filter-4)" xlink:href="#path-3"></use>
                <use fill="#F9F9F9" fill-rule="evenodd" xlink:href="#path-3"></use>
            </g>
            <g id="&lt;/&gt;" transform="translate(90.000000, 132.000000)" fill="#66AD4C" fill-rule="nonzero">
                <path d="M18.9949762,25.3271768 L0,16.9676781 L0,12.3383905 L18.9949762,4.0171504 L18.9949762,9.46899736 L5.74574406,14.5956464 L18.9949762,19.9135884 L18.9949762,25.3271768 Z M21.0661138,29 L27.9269858,0 L31.9149858,0 L24.9785119,29 L21.0661138,29 Z M33.9861233,25.3463061 L33.9861233,19.9327177 L47.2542559,14.6530343 L33.9861233,9.43073879 L33.9861233,4.05540897 L53,12.3766491 L53,16.9676781 L33.9861233,25.3463061 Z" id="Combined-Shape"></path>
            </g>
            <g id=".PNG" transform="translate(32.000000, 68.000000)" fill="#FFFFFF" fill-rule="nonzero">
                <path d="M0,28.5217678 L0,23.146438 L5.3399925,23.146438 L5.3399925,28.5217678 L0,28.5217678 Z M7.51744091,28.5217678 L7.51744091,0.47823219 L16.5441186,0.47823219 C19.9647544,0.47823219 22.1945021,0.618513632 23.2333619,0.899076517 C24.8296586,1.31992084 26.1662403,2.23493843 27.2431071,3.64412929 C28.319974,5.05332014 28.8584074,6.87379068 28.8584074,9.1055409 C28.8584074,10.8271768 28.5480163,12.2746262 27.9272343,13.4478892 C27.3064522,14.6211522 26.5178057,15.5425462 25.5612946,16.2120712 C24.6047834,16.8815963 23.6324361,17.3247581 22.6442524,17.5415567 C21.3013361,17.8093668 19.3566414,17.9432718 16.8101681,17.9432718 L13.1424864,17.9432718 L13.1424864,28.5217678 L7.51744091,28.5217678 Z M13.1424864,5.22229551 L13.1424864,13.1800792 L16.2210586,13.1800792 C18.4381373,13.1800792 19.9204128,13.0334213 20.6678851,12.7401055 C21.4153573,12.4467898 22.0012996,11.9876869 22.4257118,11.3627968 C22.850124,10.7379068 23.0623301,10.0109938 23.0623301,9.18205805 C23.0623301,8.16182938 22.7646081,7.32014072 22.1691641,6.65699208 C21.5737201,5.99384345 20.8199133,5.57937555 19.9077438,5.41358839 C19.2362857,5.28605981 17.8870349,5.22229551 15.8599915,5.22229551 L13.1424864,5.22229551 Z M30.1997004,28.5217678 L30.1997004,0.47823219 L35.6727176,0.47823219 L47.0748368,19.2058047 L47.0748368,0.47823219 L52.3008081,0.47823219 L52.3008081,28.5217678 L46.6567591,28.5217678 L35.4256717,10.2341689 L35.4256717,28.5217678 L30.1997004,28.5217678 Z M67.8757466,18.2110818 L67.8757466,13.4861478 L80,13.4861478 L80,24.6576517 C78.821781,25.805409 77.1146304,26.816073 74.8785481,27.6896438 C72.6424659,28.5632146 70.3778783,29 68.0847854,29 C65.1709105,29 62.6307717,28.3846746 60.4643691,27.1540237 C58.2979664,25.9233729 56.6699972,24.1634785 55.5804614,21.8743404 C54.4909255,19.5852023 53.9461576,17.0952067 53.9461576,14.4043536 C53.9461576,11.483949 54.5542706,8.8887423 55.7704967,6.61873351 C56.9867227,4.34872471 58.7667202,2.60795954 61.1104892,1.39643799 C62.8968212,0.465479332 65.1202344,0 67.7807289,0 C71.2393717,0 73.9410405,0.730101143 75.8857353,2.19030343 C77.8304301,3.65050572 79.081496,5.66864556 79.6389329,8.24472296 L74.0518945,9.29683377 C73.6591548,7.91952507 72.9211843,6.83234389 71.837983,6.03529024 C70.7547817,5.23823659 69.4023636,4.83970976 67.7807289,4.83970976 C65.3229388,4.83970976 63.3687422,5.62401055 61.9181393,7.19261214 C60.4675363,8.76121372 59.7422349,11.0886104 59.7422349,14.1748021 C59.7422349,17.5032982 60.4770381,19.9996702 61.9466446,21.6639182 C63.4162511,23.3281662 65.3419423,24.1602902 67.7237183,24.1602902 C68.9019373,24.1602902 70.0833235,23.9275506 71.267877,23.4620712 C72.4524305,22.9965919 73.4691195,22.4322779 74.3179439,21.7691293 L74.3179439,18.2110818 L67.8757466,18.2110818 Z" id="Combined-Shape"></path>
            </g>
        </g>
    </g>
</svg>